<?xml version="1.0" encoding="utf-8"?>
<!-- Generator: Adobe Illustrator 18.1.1, SVG Export Plug-In . SVG Version: 6.00 Build 0)  -->
<!DOCTYPE svg PUBLIC "-//W3C//DTD SVG 1.1//EN" "http://www.w3.org/Graphics/SVG/1.1/DTD/svg11.dtd">
<svg version="1.1" id="Layer_1" xmlns="http://www.w3.org/2000/svg" xmlns:xlink="http://www.w3.org/1999/xlink" x="0px" y="0px"
	 viewBox="0 0 300 300" enable-background="new 0 0 300 300" xml:space="preserve">
<path fill="#FFFFFF" d="M1.6,17.1c0.2,0,0.4-0.3,0.8-0.7c0.3-0.2,1.1-0.8,2.2-1.3c1.1-0.4,1.7-0.5,2.1-0.5c0.9-0.2,1.9,0,2.5,0.1
	c1.1,0.3,1.8,0.9,3,2.4c1.7,2,3.2,2.3,4.8,1.7c1.5-0.6,3.5-3.3,5.7-5.9c0.4-0.4,3.9-4.6,4.1-4.9c0,0,0,0,0,0c0,0,0,0,0,0
	c0,0,0,0,0,0c0,0,0,0,0,0c0,0,0,0,0,0c0,0,0,0,0,0c0,0,0,0,0,0c-1.1-1.9-3.6-5.9-4.1-6.7c0,0,0-0.1-0.1-0.1c0,0,0,0,0,0c0,0,0,0,0,0
	h0c0,0,0,0,0,0c0,0,0,0,0,0c0,0-0.1,0-0.1,0c0,0,0,0,0,0c0,0,0,0,0,0c-0.2,0.1-0.4,0.3-0.7,0.4c-1.9,1.2-5.6,3.4-5.6,3.5
	c0,0,0,0,0,0c0,0,0,0,0,0c0,0,0,0,0,0c0,0,0,0,0,0c0,0,0,0,0,0.1c0,0,0,0,0,0c0.1,0.7,2.4,11.5,2.5,11.9c-0.3,0.3-0.6,0.5-0.8,0.8
	c-0.4,0.3-0.8,0.6-1.1,0.7c-0.5,0.2-0.9,0.2-1.3,0.2c-1.2-0.1-2.2-0.9-2.8-1.7c-1.1-1.3-2-2.8-4.7-3C5,13.7,2.6,15,1.9,15.6
	c-0.4,0.3-0.6,0.5-0.8,0.6c-0.1,0.2-0.1,0.4,0,0.6C1.3,17.1,1.5,17.1,1.6,17.1z"/>
<path fill="#0A0C0E" d="M36,22H4c-2.2,0-4,1.8-4,4v32c0,2.2,1.8,4,4,4h32c2.2,0,4-1.8,4-4V26C40,23.8,38.2,22,36,22z M12,58H4v-8h8
	V58z M12,46H4v-8h8V46z M12,34H4v-8h8V34z M24,58h-8v-8h8V58z M24,46h-8v-8h8V46z M24,34h-8v-8h8V34z M36,58h-8v-8h8V58z M36,46h-8
	v-8h8V46z M36,34h-8v-8h8V34z"/>
<path fill="#FFFFFF" d="M44.6,55c0.4-0.1,1-0.9,2.2-1.7c0.7-0.5,2.9-2.2,5.9-3.3c3-1.1,4.4-1.2,5.5-1.4c2.4-0.4,4.9-0.1,6.6,0.3
	c2.9,0.7,4.8,2.3,7.9,6c4.4,5.2,8.5,5.8,12.5,4.3c3.8-1.4,9.2-8.3,15-15.1c0.9-1.1,10.2-11.8,10.8-12.4c0.1-0.1,0.1-0.1,0.1-0.1
	c0,0,0-0.1,0-0.1c0,0,0,0,0,0c0,0,0,0,0-0.1c0,0,0,0,0-0.1c0,0,0,0,0-0.1c0,0,0,0,0,0c-2.8-4.9-9.3-15.1-10.6-17.1
	c0,0-0.1-0.2-0.3-0.2c0,0,0,0,0,0c0,0-0.1,0-0.1,0h0c0,0,0,0,0,0c0,0,0,0,0,0c-0.1,0-0.2,0-0.2,0.1c0,0,0,0,0,0c0,0,0,0,0,0
	c-0.5,0.3-1.1,0.7-1.8,1.1c-5,3-14.6,8.8-14.7,8.9c0,0-0.1,0-0.1,0.1c0,0,0,0,0,0c0,0,0,0,0,0c0,0,0,0,0,0c0,0,0,0.1,0,0.1
	c0,0,0,0,0,0.1c0.4,1.7,6.3,29.4,6.5,30.4c-0.7,0.7-1.4,1.4-2.2,2c-1,0.8-2,1.4-2.9,1.7c-1.3,0.4-2.3,0.6-3.4,0.6
	c-3.2-0.2-5.7-2.3-7.4-4.4c-2.8-3.3-5.2-7.1-12.3-7.6c-8.1-0.7-14.2,2.8-16.2,4.4c-1,0.8-1.7,1.2-2,1.7c-0.3,0.5-0.3,1.1,0.1,1.6
	C43.8,55.1,44.2,55.1,44.6,55z"/>
<path fill="#FFFFFF" d="M8,98l-1.1,1.1l4.2,4.2H2v1.5h9.1l-4.2,4.2L8,110l6-6L8,98z"/>
<path fill="#FFFFFF" d="M19,120.4l-1.4-1.4l-5.6,5.6L6.4,119L5,120.4l5.6,5.6L5,131.6l1.4,1.4l5.6-5.6l5.6,5.6l1.4-1.4l-5.6-5.6
	L19,120.4z"/>
<path d="M46,125H33.8l5.6-5.6L38,118l-8,8l8,8l1.4-1.4l-5.6-5.6H46V125z"/>
<path d="M64,118l-1.4,1.4l5.6,5.6H56v2h12.2l-5.6,5.6L64,134l8-8L64,118z"/>
<path fill="#FFFFFF" d="M90,123.1c-1.6,0-2.9,1.3-2.9,2.9s1.3,2.9,2.9,2.9s2.9-1.3,2.9-2.9S91.6,123.1,90,123.1z M96.5,125.3
	c-0.3-3-2.7-5.4-5.8-5.8V118h-1.5v1.5c-3,0.3-5.4,2.7-5.8,5.8H82v1.5h1.5c0.3,3,2.7,5.4,5.8,5.8v1.5h1.5v-1.5c3-0.3,5.4-2.7,5.8-5.8
	H98v-1.5H96.5z M90,131.1c-2.8,0-5.1-2.3-5.1-5.1s2.3-5.1,5.1-5.1s5.1,2.3,5.1,5.1S92.8,131.1,90,131.1z"/>
<path fill="#0A0C0E" d="M108,122h4v-4h-4V122z M114,134h4v-4h-4V134z M108,134h4v-4h-4V134z M108,128h4v-4h-4V128z M114,128h4v-4h-4
	V128z M120,118v4h4v-4H120z M114,122h4v-4h-4V122z M120,128h4v-4h-4V128z M120,134h4v-4h-4V134z"/>
<path fill="#FFFFFF" d="M139,130.2l-4.2-4.2l-1.4,1.4l5.6,5.6l12-12l-1.4-1.4L139,130.2z"/>
</svg>
