<?xml version="1.0" encoding="UTF-8"?>
<svg width="44px" height="44px" viewBox="0 0 44 44" version="1.1" xmlns="http://www.w3.org/2000/svg" xmlns:xlink="http://www.w3.org/1999/xlink">
    <!-- Generator: Sketch 54.1 (76490) - https://sketchapp.com -->
    <title>dribbble</title>
    <desc>Created with Sketch.</desc>
    <g id="dribbble" stroke="none" stroke-width="1" fill="none" fill-rule="evenodd">
        <path d="M17.0506515,28.5384533 C18.4261279,29.5812556 20.1408062,30.2 22,30.2 C23.0852178,30.2 24.1211978,29.9891878 25.0692221,29.6062813 C24.8318936,27.6309842 24.3154112,25.617282 23.5184707,23.5652289 C21.0763001,24.309567 18.9293507,25.9631627 17.0506515,28.5384533 Z M15.7347348,27.2904965 C17.7722575,24.5617901 20.1398723,22.7611855 22.8138496,21.8996254 C22.6322003,21.5024843 22.4402416,21.1039357 22.2379645,20.7039801 C19.8380059,21.4530568 17.0240234,21.8530465 13.800491,21.9093261 C13.8001639,21.9395119 13.8,21.9697368 13.8,22 C13.8,24.0162242 14.5276786,25.86249 15.7347348,27.2904965 Z M30.0553744,23.5412903 C28.3681027,23.1267803 26.785366,23.0087015 25.3020592,23.1894082 C26.0008229,25.0406237 26.48697,26.8701471 26.7596925,28.6780118 C28.4438946,27.4754592 29.654019,25.651655 30.0553744,23.5412903 Z M30.1954672,21.7247483 C30.137808,19.9765804 29.5329493,18.3669072 28.5466677,17.061505 C27.2992136,18.3127271 25.7631677,19.31943 23.9410888,20.084689 C24.1722151,20.5484062 24.3903685,21.0107958 24.595537,21.4718585 C26.3467525,21.1885033 28.2153193,21.271913 30.1954672,21.7247483 Z M18.4381657,14.6118871 C16.2440518,15.6716188 14.5939201,17.6799622 14.0201728,20.1045153 C16.8318373,20.0389096 19.2799314,19.6981699 21.3681648,19.0867544 C20.5291469,17.6138466 19.552629,16.122218 18.4381657,14.6118871 Z M20.21607,13.9946007 C21.3066669,15.5051596 22.2667156,17.0022829 23.0958235,18.4859871 C24.7919373,17.7928005 26.195904,16.8802644 27.3104492,15.7516547 C25.8797078,14.534482 24.0256276,13.8 22,13.8 C21.3873416,13.8 20.7903761,13.8671891 20.21607,13.9946007 Z M22,32 C16.4771525,32 12,27.5228475 12,22 C12,16.4771525 16.4771525,12 22,12 C27.5228475,12 32,16.4771525 32,22 C32,27.5228475 27.5228475,32 22,32 Z" fill="#0F1318" fill-rule="nonzero"></path>
    </g>
</svg>