<?xml version="1.0" encoding="UTF-8"?>
<svg width="44px" height="44px" viewBox="0 0 44 44" version="1.1" xmlns="http://www.w3.org/2000/svg" xmlns:xlink="http://www.w3.org/1999/xlink">
    <!-- Generator: Sketch 54.1 (76490) - https://sketchapp.com -->
    <title>instagram</title>
    <desc>Created with Sketch.</desc>
    <g id="instagram" stroke="none" stroke-width="1" fill="none" fill-rule="evenodd">
        <path d="M21.9999802,12 C24.7158369,12 25.0563412,12.0115116 26.1229475,12.0601777 C27.1873706,12.1087248 27.9142666,12.277786 28.55038,12.5250069 C29.2079684,12.780524 29.7656443,13.1224573 30.3215737,13.6783866 C30.8775427,14.2343557 31.2194363,14.7920316 31.4749931,15.4495803 C31.722214,16.0856937 31.8912752,16.8125897 31.9398223,17.8770128 C31.9884884,18.9436191 32,19.2841631 32,21.9999802 C32,24.7158369 31.9884884,25.0563809 31.9398223,26.1229872 C31.8912752,27.1873706 31.722214,27.9143063 31.4749931,28.55038 C31.2194363,29.2079684 30.8775427,29.7656443 30.3215737,30.3215737 C29.7656443,30.8775427 29.2079684,31.2194363 28.55038,31.4750328 C27.9142666,31.722214 27.1873706,31.8912752 26.1229475,31.939862 C25.0563412,31.9884884 24.7158369,32 21.9999802,32 C19.2841631,32 18.9435794,31.9884884 17.8770128,31.939862 C16.8125897,31.8912752 16.0856937,31.722214 15.4495803,31.4750328 C14.7920316,31.2194363 14.234316,30.8775427 13.6783866,30.3215737 C13.1224176,29.7656443 12.780524,29.2079287 12.5249672,28.55038 C12.2777464,27.9143063 12.1087248,27.1873706 12.060138,26.1229872 C12.0114719,25.0563809 12,24.7158369 12,21.9999802 C12,19.2841234 12.0114719,18.9436191 12.060138,17.8770128 C12.1087248,16.8125897 12.2777464,16.0856937 12.5249672,15.4495803 C12.780524,14.7920316 13.1224176,14.2343557 13.6783866,13.6783866 C14.234316,13.1224573 14.7920316,12.780524 15.4495803,12.5250069 C16.0856937,12.277786 16.8125897,12.1087248 17.8770128,12.0601777 C18.9435794,12.0115116 19.2841631,12 21.9999802,12 Z M22,14 C19.3944192,14 19.0858136,14.0099163 18.0568056,14.0568635 C17.1054235,14.1002859 16.5886921,14.2592559 16.2448373,14.392893 C15.7893855,14.5699137 15.4642786,14.7813702 15.1228254,15.1228614 C14.7813721,15.4643138 14.5698764,15.7893812 14.3928552,16.2448706 C14.2592566,16.5887246 14.1002862,17.1054159 14.0568637,18.0568345 C14.0099163,19.0858013 14,19.3944449 14,21.9999806 C14,24.6055551 14.0099163,24.9141987 14.0568637,25.9431655 C14.1002862,26.8945841 14.2592566,27.4112754 14.3928552,27.7551294 C14.5698764,28.2105801 14.7813721,28.5356862 15.1228254,28.8771386 C15.4642786,29.2186298 15.7893855,29.4300863 16.2448373,29.607107 C16.5886921,29.7407053 17.1054235,29.8997141 18.0568443,29.9430977 C19.0856587,29.990045 19.3942255,30 22,30 C24.6057745,30 24.9143413,29.990045 25.9431557,29.9430977 C26.8945765,29.8997141 27.4112691,29.7407053 27.755124,29.607107 C28.2106145,29.4300863 28.5357214,29.2186298 28.8771746,28.8771386 C29.2186279,28.5356862 29.4300849,28.2105801 29.6071448,27.7551294 C29.7407434,27.4112754 29.8997138,26.8945841 29.9431363,25.9431268 C29.990045,24.9141987 30,24.6055551 30,21.9999806 C30,19.3944449 29.990045,19.0858013 29.9431363,18.0568345 C29.8997138,17.1054159 29.7407434,16.5887246 29.6071448,16.2448706 C29.4300849,15.7893812 29.2186279,15.4643138 28.8771746,15.1228226 C28.5357214,14.7813702 28.2106145,14.5699137 27.755124,14.392893 C27.4112691,14.2592559 26.8945765,14.1002859 25.9431557,14.0568635 C24.9141864,14.0099163 24.6055808,14 22,14 Z M22,25 C23.6568343,25 25,23.6568263 25,21.9999821 C25,20.343138 23.6568343,19 22,19 C20.3431657,19 19,20.343138 19,21.9999821 C19,23.6568263 20.3431657,25 22,25 Z M22.0000193,17 C24.7614415,17 27,19.2385585 27,21.9999807 C27,24.7614415 24.7614415,27 22.0000193,27 C19.2385971,27 17,24.7614415 17,21.9999807 C17,19.2385585 19.2385971,17 22.0000193,17 Z M28.1500061,17.0000976 C28.1500061,17.6352415 27.6351585,18.1500976 27.0000251,18.1500976 C26.3648917,18.1500976 25.8500061,17.6352415 25.8500061,17.0000976 C25.8500061,16.3649537 26.3648917,15.8500977 27.0000251,15.8500977 C27.6351585,15.8500977 28.1500061,16.3649537 28.1500061,17.0000976 Z" fill="#0F1318"></path>
    </g>
</svg>