<?xml version="1.0" encoding="UTF-8"?>
<svg width="44px" height="44px" viewBox="0 0 44 44" version="1.1" xmlns="http://www.w3.org/2000/svg" xmlns:xlink="http://www.w3.org/1999/xlink">
    <!-- Generator: Sketch 54.1 (76490) - https://sketchapp.com -->
    <title>twitter</title>
    <desc>Created with Sketch.</desc>
    <g id="twitter" stroke="none" stroke-width="1" fill="none" fill-rule="evenodd">
        <path d="M17.9664377,31 C26.3258085,31 30.8980317,24.0743224 30.8980317,18.068406 C30.8980317,17.8716941 30.8980317,17.6758682 30.8847404,17.4809285 C31.7742251,16.8375483 32.5420432,16.0409258 33.1522441,15.1283602 C32.3227569,15.4959118 31.4428256,15.736952 30.5418236,15.8434346 C31.4905989,15.2754352 32.2006931,14.3820705 32.539956,13.329598 C31.6478032,13.858997 30.6717652,14.232091 29.6539617,14.4327797 C28.2451523,12.9347513 26.0065675,12.5681036 24.1934772,13.5384315 C22.3803868,14.5087595 21.4436976,16.5747473 21.9086511,18.5779076 C18.2543245,18.3947081 14.8495955,16.6686706 12.5417962,13.8293526 C11.3354937,15.9060322 11.9516497,18.5627196 13.9489067,19.8964092 C13.2256282,19.8749725 12.5181193,19.6798605 11.8860898,19.3275396 C11.8860898,19.3461474 11.8860898,19.3656414 11.8860898,19.3851354 C11.8866818,21.5486059 13.4117161,23.4120015 15.5323491,23.8403947 C14.8632358,24.0228761 14.1611966,24.0495512 13.4801652,23.9183706 C14.0755714,25.7697868 15.7818495,27.0381012 17.7263074,27.0746224 C16.1169336,28.3394552 14.1288357,29.0260824 12.0819156,29.0240198 C11.7203055,29.0233256 11.3590472,29.0014312 11,28.9584492 C13.078444,30.2922593 15.4968288,30.9997492 17.9664377,30.9964556" fill="#0F1318" fill-rule="nonzero"></path>
    </g>
</svg>